<svg width="185" height="78" viewBox="0 0 185 78" fill="none" xmlns="http://www.w3.org/2000/svg">
<path d="M26.6317 47.218L38.6317 69.218L6.13171 73.218L26.6317 47.218Z" stroke="#111111" stroke-width="5"/>
<path d="M24.1317 41.718L42.6317 31.718L56.1317 71.218L41.6317 74.218L24.1317 41.718Z" stroke="#111111" stroke-width="5"/>
<path d="M41.6317 27.718L61.1317 17.718L77.1317 67.718L57.6317 73.218L41.6317 27.718Z" stroke="#111111" stroke-width="5"/>
<path d="M59.1989 11.0661L94.3393 3.32885L90.7005 71.2963L78.8408 72.5689L59.1989 11.0661Z" stroke="#111111" stroke-width="5"/>
<path d="M94.6317 10.218L122.632 11.718L115.132 66.718L91.1317 65.218L94.6317 10.218Z" stroke="#111111" stroke-width="5"/>
<path d="M122.132 19.718L153.132 22.718L143.132 64.718L116.632 59.218L122.132 19.718Z" stroke="#111111" stroke-width="5"/>
<path d="M152.132 29.718L178.632 51.5817L145.632 57.5817L152.132 29.718Z" stroke="#111111" stroke-width="5"/>
</svg>
