<svg width="613" height="500" viewBox="0 0 613 500" fill="none" xmlns="http://www.w3.org/2000/svg">
<path d="M271.843 196.763H251.783V237.839L274.391 237.626L293.177 220.326L283.625 187.848L271.843 196.763Z" fill="black"/>
<path d="M232.041 196.763H252.101V237.839L229.494 237.626L210.707 220.326L220.578 187.848L232.041 196.763Z" fill="black"/>
<path d="M221.19 188.581L232.653 179.029" stroke="black" stroke-width="2.60087"/>
<path d="M283.013 188.581L271.55 179.029" stroke="black" stroke-width="2.60087"/>
<path d="M232.041 179.25H251.783" stroke="black" stroke-width="2.60087"/>
<path d="M272.162 179.25H242.868" stroke="black" stroke-width="2.60087"/>
<path d="M221.779 189.962L217.826 187.047L212.775 189.461L208.88 201.181L217.95 215.987" stroke="black" stroke-width="2.60087"/>
<path d="M230.917 91.5003H250.016V150.265H230.917L217.695 135.574V81.2164L230.917 91.5003Z" fill="black"/>
<path d="M269.114 91.5003H249V150.265H269.114L282.336 135.574V81.2164L269.114 91.5003Z" fill="black"/>
<path d="M218.396 82.0669L230.883 71.7831" stroke="black" stroke-width="3"/>
<path d="M281.636 82.0669L269.148 71.7831" stroke="black" stroke-width="3"/>
<path d="M230.183 72.0344H250.016" stroke="black" stroke-width="3"/>
<path d="M269.849 72.0344H250.016" stroke="black" stroke-width="3"/>
<path d="M281.408 83.3555L286.452 79.3464L293.154 84.7173L293.12 98.8004L280.978 110.946" stroke="black" stroke-width="3"/>
<path d="M273.462 15.0461H250.303V43.4145H264.746L278.691 34.3513L282.177 8.85669L273.462 15.0461Z" fill="black"/>
<path d="M227.394 15.0461H250.553V43.4145H236.11L222.165 34.3513L218.43 8.85669L227.394 15.0461Z" fill="black"/>
<path d="M218.908 9.36621L227.872 2.73466" stroke="black" stroke-width="2.03399"/>
<path d="M281.699 9.36617L272.735 2.73462" stroke="black" stroke-width="2.03399"/>
<path d="M227.394 2.88831H250.303" stroke="black" stroke-width="2.03399"/>
<path d="M273.213 2.88831H250.303" stroke="black" stroke-width="2.03399"/>
<path d="M281.397 10.3286L283.814 8.48474L288.506 10.8576L287.294 21.2484L277.323 28.1675" stroke="black" stroke-width="2.03399"/>
<path d="M126.17 210.499H145.268V237.678H126.17L112.948 228.128V200.215L126.17 210.499Z" fill="black"/>
<path d="M164.367 210.499H144.5V237.678H164.367L177.589 228.128V200.215L164.367 210.499Z" fill="black"/>
<path d="M113.649 201.066L126.136 190.782" stroke="black" stroke-width="3"/>
<path d="M176.889 201.066L164.401 190.782" stroke="black" stroke-width="3"/>
<path d="M125.435 191.033H145.269" stroke="black" stroke-width="3"/>
<path d="M165.102 191.033H145.269" stroke="black" stroke-width="3"/>
<path d="M114.723 203.064L109.679 199.054L105.307 201.74L105.342 211.306L114.565 222.553" stroke="black" stroke-width="3"/>
<path d="M122.426 19.0334H141.693V79.5881H123.649L94.2891 57.5682L111.721 10.4701L122.426 19.0334Z" fill="black"/>
<path d="M160.96 19.0334H141V79.5881H159.737L189.097 57.5682L172.276 10.4701L160.96 19.0334Z" fill="black"/>
<path d="M112.309 11.1748L123.319 1.99988" stroke="black" stroke-width="2.49808"/>
<path d="M171.689 11.1749L160.679 2" stroke="black" stroke-width="2.49808"/>
<path d="M122.731 2.21265H141.693" stroke="black" stroke-width="2.49808"/>
<path d="M161.266 2.21265H133.13" stroke="black" stroke-width="2.49808"/>
<path d="M170.704 12.7838L175.648 9.10425L180.537 11.7673L186.533 27.2292L179.122 43.6672" stroke="black" stroke-width="2.49808"/>
<path d="M116.721 119.243H138.616V165.385H128.964L113.425 154.586L108.246 112.37L116.721 119.243Z" fill="black"/>
<path d="M160.276 119.243H138.381V165.385H148.033L163.572 154.586L168.516 112.37L160.276 119.243Z" fill="black"/>
<path d="M108.698 112.936L117.173 105.573" stroke="black" stroke-width="1.96431"/>
<path d="M168.064 112.936L159.589 105.573" stroke="black" stroke-width="1.96349"/>
<path d="M116.721 105.744H138.381" stroke="black" stroke-width="1.96349"/>
<path d="M160.04 105.744H138.381" stroke="black" stroke-width="1.96349"/>
<path d="M167.741 114.054L170.36 111.638L174.463 114.641L173.317 126.178L163.89 133.861" stroke="black" stroke-width="1.96349"/>
<path d="M18.9653 109.752H37.5196V131.546H17.7872L1 122.416L8.65733 101.505L18.9653 109.752Z" fill="black"/>
<path d="M56.0739 109.752H37V131.546H57.2519L74.0391 122.416L66.9708 101.505L56.0739 109.752Z" fill="black"/>
<path d="M9.2229 102.184L19.8253 93.3486" stroke="black" stroke-width="2.40563"/>
<path d="M66.4054 102.184L55.8027 93.3486" stroke="black" stroke-width="2.40563"/>
<path d="M19.2598 93.5535H37.5196" stroke="black" stroke-width="2.40563"/>
<path d="M56.3684 93.5535H29.2732" stroke="black" stroke-width="2.40563"/>
<path d="M65.8119 103.469L68.5376 101.501L72.6608 103.762L74.7903 110.627L70.3105 116.79" stroke="black" stroke-width="2.40563"/>
<path d="M14.2221 21.7171H33.3206V62.4851H14.2221L1 51.4667V11.4332L14.2221 21.7171Z" fill="black"/>
<path d="M52.4193 21.7171H32.5V62.4851H52.4193L65.6414 51.4667V11.4332L52.4193 21.7171Z" fill="black"/>
<path d="M1.70044 12.2838L14.1879 2" stroke="black" stroke-width="3"/>
<path d="M64.9408 12.2838L52.4532 2" stroke="black" stroke-width="3"/>
<path d="M13.4875 2.25122H33.3207" stroke="black" stroke-width="3"/>
<path d="M53.1537 2.25122H33.3206" stroke="black" stroke-width="3"/>
<path d="M64.8952 13.3731L68.4616 10.5493L74.9345 15.8513L74.8998 29.9344L64.0244 41.3655" stroke="black" stroke-width="3"/>
<path d="M59.6239 175.428H36V237.486H47.763L61.996 227.223L67.3873 168.744L59.6239 175.428Z" fill="black"/>
<path d="M14.7681 175.428H37.1959V237.486H26.629L12.3959 227.223L7.00464 168.744L14.7681 175.428Z" fill="black"/>
<path d="M7.41895 169.295L15.1824 162.134" stroke="black" stroke-width="1.85317"/>
<path d="M66.9732 169.295L59.2097 162.134" stroke="black" stroke-width="1.85317"/>
<path d="M14.7683 162.3H42.8031" stroke="black" stroke-width="1.85317"/>
<path d="M59.6238 162.3H42.803" stroke="black" stroke-width="1.85317"/>
<path d="M7.72753 170.345L4.66846 167.548L1 170.879L3.49578 192.083L13.6555 198.668" stroke="black" stroke-width="1.85317"/>
<path d="M589.843 196.763H569.783V237.839L592.391 237.626L611.177 220.326L601.625 187.848L589.843 196.763Z" fill="black"/>
<path d="M550.041 196.763H570.101V237.839L547.494 237.626L528.707 220.326L538.578 187.848L550.041 196.763Z" fill="black"/>
<path d="M539.19 188.581L550.653 179.029" stroke="black" stroke-width="2.60087"/>
<path d="M601.013 188.581L589.55 179.029" stroke="black" stroke-width="2.60087"/>
<path d="M550.041 179.25H569.783" stroke="black" stroke-width="2.60087"/>
<path d="M590.162 179.25H560.868" stroke="black" stroke-width="2.60087"/>
<path d="M539.779 189.962L535.826 187.047L530.775 189.461L526.88 201.181L535.95 215.987" stroke="black" stroke-width="2.60087"/>
<path d="M548.917 91.5003H568.016V150.265H548.917L535.695 135.574V81.2164L548.917 91.5003Z" fill="black"/>
<path d="M587.114 91.5003H567V150.265H587.114L600.336 135.574V81.2164L587.114 91.5003Z" fill="black"/>
<path d="M536.396 82.0669L548.883 71.7831" stroke="black" stroke-width="3"/>
<path d="M599.636 82.0669L587.148 71.7831" stroke="black" stroke-width="3"/>
<path d="M548.183 72.0344H568.016" stroke="black" stroke-width="3"/>
<path d="M587.849 72.0344H568.016" stroke="black" stroke-width="3"/>
<path d="M599.408 83.3555L604.452 79.3464L611.154 84.7173L611.12 98.8004L598.978 110.946" stroke="black" stroke-width="3"/>
<path d="M591.462 15.0461H568.303V43.4145H582.746L596.691 34.3513L600.177 8.85669L591.462 15.0461Z" fill="black"/>
<path d="M545.394 15.0461H568.553V43.4145H554.11L540.165 34.3513L536.43 8.85669L545.394 15.0461Z" fill="black"/>
<path d="M536.908 9.36621L545.872 2.73466" stroke="black" stroke-width="2.03399"/>
<path d="M599.699 9.36617L590.735 2.73462" stroke="black" stroke-width="2.03399"/>
<path d="M545.394 2.88831H568.303" stroke="black" stroke-width="2.03399"/>
<path d="M591.213 2.88831H568.303" stroke="black" stroke-width="2.03399"/>
<path d="M599.397 10.3286L601.814 8.48474L606.506 10.8576L605.294 21.2484L595.323 28.1675" stroke="black" stroke-width="2.03399"/>
<path d="M444.17 210.499H463.268V237.678H444.17L430.948 228.128V200.215L444.17 210.499Z" fill="black"/>
<path d="M482.367 210.499H462.5V237.678H482.367L495.589 228.128V200.215L482.367 210.499Z" fill="black"/>
<path d="M431.649 201.066L444.136 190.782" stroke="black" stroke-width="3"/>
<path d="M494.889 201.066L482.401 190.782" stroke="black" stroke-width="3"/>
<path d="M443.435 191.033H463.269" stroke="black" stroke-width="3"/>
<path d="M483.102 191.033H463.269" stroke="black" stroke-width="3"/>
<path d="M432.723 203.064L427.679 199.054L423.307 201.74L423.342 211.306L432.565 222.553" stroke="black" stroke-width="3"/>
<path d="M440.426 19.0334H459.693V79.5881H441.649L412.289 57.5682L429.721 10.4701L440.426 19.0334Z" fill="black"/>
<path d="M478.96 19.0334H459V79.5881H477.737L507.097 57.5682L490.276 10.4701L478.96 19.0334Z" fill="black"/>
<path d="M430.309 11.1748L441.319 1.99988" stroke="black" stroke-width="2.49808"/>
<path d="M489.689 11.1749L478.679 2" stroke="black" stroke-width="2.49808"/>
<path d="M440.731 2.21265H459.693" stroke="black" stroke-width="2.49808"/>
<path d="M479.266 2.21265H451.13" stroke="black" stroke-width="2.49808"/>
<path d="M488.704 12.7838L493.648 9.10425L498.537 11.7673L504.533 27.2292L497.122 43.6672" stroke="black" stroke-width="2.49808"/>
<path d="M434.721 119.243H456.616V165.385H446.964L431.425 154.586L426.246 112.37L434.721 119.243Z" fill="black"/>
<path d="M478.276 119.243H456.381V165.385H466.033L481.572 154.586L486.516 112.37L478.276 119.243Z" fill="black"/>
<path d="M426.698 112.936L435.173 105.573" stroke="black" stroke-width="1.96431"/>
<path d="M486.064 112.936L477.589 105.573" stroke="black" stroke-width="1.96349"/>
<path d="M434.721 105.744H456.381" stroke="black" stroke-width="1.96349"/>
<path d="M478.04 105.744H456.381" stroke="black" stroke-width="1.96349"/>
<path d="M485.741 114.054L488.36 111.638L492.463 114.641L491.317 126.178L481.89 133.861" stroke="black" stroke-width="1.96349"/>
<path d="M336.965 109.752H355.52V131.546H335.787L319 122.416L326.657 101.505L336.965 109.752Z" fill="black"/>
<path d="M374.074 109.752H355V131.546H375.252L392.039 122.416L384.971 101.505L374.074 109.752Z" fill="black"/>
<path d="M327.223 102.184L337.825 93.3486" stroke="black" stroke-width="2.40563"/>
<path d="M384.405 102.184L373.803 93.3486" stroke="black" stroke-width="2.40563"/>
<path d="M337.26 93.5535H355.52" stroke="black" stroke-width="2.40563"/>
<path d="M374.368 93.5535H347.273" stroke="black" stroke-width="2.40563"/>
<path d="M383.812 103.469L386.538 101.501L390.661 103.762L392.79 110.627L388.311 116.79" stroke="black" stroke-width="2.40563"/>
<path d="M332.222 21.7171H351.321V62.4851H332.222L319 51.4667V11.4332L332.222 21.7171Z" fill="black"/>
<path d="M370.419 21.7171H350.5V62.4851H370.419L383.641 51.4667V11.4332L370.419 21.7171Z" fill="black"/>
<path d="M319.7 12.2838L332.188 2" stroke="black" stroke-width="3"/>
<path d="M382.941 12.2838L370.453 2" stroke="black" stroke-width="3"/>
<path d="M331.487 2.25122H351.321" stroke="black" stroke-width="3"/>
<path d="M371.154 2.25122H351.321" stroke="black" stroke-width="3"/>
<path d="M382.895 13.3731L386.462 10.5493L392.935 15.8513L392.9 29.9344L382.024 41.3655" stroke="black" stroke-width="3"/>
<path d="M377.624 175.428H354V237.486H365.763L379.996 227.223L385.387 168.744L377.624 175.428Z" fill="black"/>
<path d="M332.768 175.428H355.196V237.486H344.629L330.396 227.223L325.005 168.744L332.768 175.428Z" fill="black"/>
<path d="M325.419 169.295L333.182 162.134" stroke="black" stroke-width="1.85317"/>
<path d="M384.973 169.295L377.21 162.134" stroke="black" stroke-width="1.85317"/>
<path d="M332.768 162.3H360.803" stroke="black" stroke-width="1.85317"/>
<path d="M377.624 162.3H360.803" stroke="black" stroke-width="1.85317"/>
<path d="M325.728 170.345L322.668 167.548L319 170.879L321.496 192.083L331.655 198.668" stroke="black" stroke-width="1.85317"/>
<path d="M271.843 458.763H251.783V499.839L274.391 499.626L293.177 482.326L283.625 449.848L271.843 458.763Z" fill="black"/>
<path d="M232.041 458.763H252.101V499.839L229.494 499.626L210.707 482.326L220.578 449.848L232.041 458.763Z" fill="black"/>
<path d="M221.19 450.581L232.653 441.029" stroke="black" stroke-width="2.60087"/>
<path d="M283.013 450.581L271.55 441.029" stroke="black" stroke-width="2.60087"/>
<path d="M232.041 441.25H251.783" stroke="black" stroke-width="2.60087"/>
<path d="M272.162 441.25H242.868" stroke="black" stroke-width="2.60087"/>
<path d="M221.779 451.962L217.826 449.047L212.775 451.461L208.88 463.181L217.95 477.987" stroke="black" stroke-width="2.60087"/>
<path d="M230.917 353.5H250.016V412.265H230.917L217.695 397.574V343.216L230.917 353.5Z" fill="black"/>
<path d="M269.114 353.5H249V412.265H269.114L282.336 397.574V343.216L269.114 353.5Z" fill="black"/>
<path d="M218.396 344.067L230.883 333.783" stroke="black" stroke-width="3"/>
<path d="M281.636 344.067L269.148 333.783" stroke="black" stroke-width="3"/>
<path d="M230.183 334.034H250.016" stroke="black" stroke-width="3"/>
<path d="M269.849 334.034H250.016" stroke="black" stroke-width="3"/>
<path d="M281.408 345.356L286.452 341.346L293.154 346.717L293.12 360.8L280.978 372.946" stroke="black" stroke-width="3"/>
<path d="M273.462 277.046H250.303V305.414H264.746L278.691 296.351L282.177 270.857L273.462 277.046Z" fill="black"/>
<path d="M227.394 277.046H250.553V305.414H236.11L222.165 296.351L218.43 270.857L227.394 277.046Z" fill="black"/>
<path d="M218.908 271.366L227.872 264.735" stroke="black" stroke-width="2.03399"/>
<path d="M281.699 271.366L272.735 264.735" stroke="black" stroke-width="2.03399"/>
<path d="M227.394 264.888H250.303" stroke="black" stroke-width="2.03399"/>
<path d="M273.213 264.888H250.303" stroke="black" stroke-width="2.03399"/>
<path d="M281.397 272.329L283.814 270.485L288.506 272.858L287.294 283.248L277.323 290.167" stroke="black" stroke-width="2.03399"/>
<path d="M126.17 472.499H145.268V499.678H126.17L112.948 490.128V462.215L126.17 472.499Z" fill="black"/>
<path d="M164.367 472.499H144.5V499.678H164.367L177.589 490.128V462.215L164.367 472.499Z" fill="black"/>
<path d="M113.649 463.066L126.136 452.782" stroke="black" stroke-width="3"/>
<path d="M176.889 463.066L164.401 452.782" stroke="black" stroke-width="3"/>
<path d="M125.435 453.033H145.269" stroke="black" stroke-width="3"/>
<path d="M165.102 453.033H145.269" stroke="black" stroke-width="3"/>
<path d="M114.723 465.064L109.679 461.054L105.307 463.74L105.342 473.306L114.565 484.553" stroke="black" stroke-width="3"/>
<path d="M122.426 281.033H141.693V341.588H123.649L94.2891 319.568L111.721 272.47L122.426 281.033Z" fill="black"/>
<path d="M160.96 281.033H141V341.588H159.737L189.097 319.568L172.276 272.47L160.96 281.033Z" fill="black"/>
<path d="M112.309 273.175L123.319 264" stroke="black" stroke-width="2.49808"/>
<path d="M171.689 273.175L160.679 264" stroke="black" stroke-width="2.49808"/>
<path d="M122.731 264.213H141.693" stroke="black" stroke-width="2.49808"/>
<path d="M161.266 264.213H133.13" stroke="black" stroke-width="2.49808"/>
<path d="M170.704 274.784L175.648 271.104L180.537 273.767L186.533 289.229L179.122 305.667" stroke="black" stroke-width="2.49808"/>
<path d="M116.721 381.243H138.616V427.385H128.964L113.425 416.586L108.246 374.37L116.721 381.243Z" fill="black"/>
<path d="M160.276 381.243H138.381V427.385H148.033L163.572 416.586L168.516 374.37L160.276 381.243Z" fill="black"/>
<path d="M108.698 374.936L117.173 367.573" stroke="black" stroke-width="1.96431"/>
<path d="M168.064 374.936L159.589 367.573" stroke="black" stroke-width="1.96349"/>
<path d="M116.721 367.744H138.381" stroke="black" stroke-width="1.96349"/>
<path d="M160.04 367.744H138.381" stroke="black" stroke-width="1.96349"/>
<path d="M167.741 376.054L170.36 373.638L174.463 376.641L173.317 388.178L163.89 395.861" stroke="black" stroke-width="1.96349"/>
<path d="M18.9653 371.752H37.5196V393.546H17.7872L1 384.416L8.65733 363.505L18.9653 371.752Z" fill="black"/>
<path d="M56.0739 371.752H37V393.546H57.2519L74.0391 384.416L66.9708 363.505L56.0739 371.752Z" fill="black"/>
<path d="M9.2229 364.184L19.8253 355.349" stroke="black" stroke-width="2.40563"/>
<path d="M66.4054 364.184L55.8027 355.349" stroke="black" stroke-width="2.40563"/>
<path d="M19.2598 355.553H37.5196" stroke="black" stroke-width="2.40563"/>
<path d="M56.3684 355.553H29.2732" stroke="black" stroke-width="2.40563"/>
<path d="M65.8119 365.469L68.5376 363.501L72.6608 365.762L74.7903 372.627L70.3105 378.79" stroke="black" stroke-width="2.40563"/>
<path d="M14.2221 283.717H33.3206V324.485H14.2221L1 313.467V273.433L14.2221 283.717Z" fill="black"/>
<path d="M52.4193 283.717H32.5V324.485H52.4193L65.6414 313.467V273.433L52.4193 283.717Z" fill="black"/>
<path d="M1.70044 274.284L14.1879 264" stroke="black" stroke-width="3"/>
<path d="M64.9408 274.284L52.4532 264" stroke="black" stroke-width="3"/>
<path d="M13.4875 264.251H33.3207" stroke="black" stroke-width="3"/>
<path d="M53.1537 264.251H33.3206" stroke="black" stroke-width="3"/>
<path d="M64.8952 275.373L68.4616 272.549L74.9345 277.851L74.8998 291.934L64.0244 303.365" stroke="black" stroke-width="3"/>
<path d="M59.6239 437.428H36V499.486H47.763L61.996 489.223L67.3873 430.744L59.6239 437.428Z" fill="black"/>
<path d="M14.7681 437.428H37.1959V499.486H26.629L12.3959 489.223L7.00464 430.744L14.7681 437.428Z" fill="black"/>
<path d="M7.41895 431.295L15.1824 424.134" stroke="black" stroke-width="1.85317"/>
<path d="M66.9732 431.295L59.2097 424.134" stroke="black" stroke-width="1.85317"/>
<path d="M14.7683 424.3H42.8031" stroke="black" stroke-width="1.85317"/>
<path d="M59.6238 424.3H42.803" stroke="black" stroke-width="1.85317"/>
<path d="M7.72753 432.345L4.66846 429.548L1 432.879L3.49578 454.083L13.6555 460.668" stroke="black" stroke-width="1.85317"/>
<path d="M589.843 458.763H569.783V499.839L592.391 499.626L611.177 482.326L601.625 449.848L589.843 458.763Z" fill="black"/>
<path d="M550.041 458.763H570.101V499.839L547.494 499.626L528.707 482.326L538.578 449.848L550.041 458.763Z" fill="black"/>
<path d="M539.19 450.581L550.653 441.029" stroke="black" stroke-width="2.60087"/>
<path d="M601.013 450.581L589.55 441.029" stroke="black" stroke-width="2.60087"/>
<path d="M550.041 441.25H569.783" stroke="black" stroke-width="2.60087"/>
<path d="M590.162 441.25H560.868" stroke="black" stroke-width="2.60087"/>
<path d="M539.779 451.962L535.826 449.047L530.775 451.461L526.88 463.181L535.95 477.987" stroke="black" stroke-width="2.60087"/>
<path d="M548.917 353.5H568.016V412.265H548.917L535.695 397.574V343.216L548.917 353.5Z" fill="black"/>
<path d="M587.114 353.5H567V412.265H587.114L600.336 397.574V343.216L587.114 353.5Z" fill="black"/>
<path d="M536.396 344.067L548.883 333.783" stroke="black" stroke-width="3"/>
<path d="M599.636 344.067L587.148 333.783" stroke="black" stroke-width="3"/>
<path d="M548.183 334.034H568.016" stroke="black" stroke-width="3"/>
<path d="M587.849 334.034H568.016" stroke="black" stroke-width="3"/>
<path d="M599.408 345.356L604.452 341.346L611.154 346.717L611.12 360.8L598.978 372.946" stroke="black" stroke-width="3"/>
<path d="M591.462 277.046H568.303V305.414H582.746L596.691 296.351L600.177 270.857L591.462 277.046Z" fill="black"/>
<path d="M545.394 277.046H568.553V305.414H554.11L540.165 296.351L536.43 270.857L545.394 277.046Z" fill="black"/>
<path d="M536.908 271.366L545.872 264.735" stroke="black" stroke-width="2.03399"/>
<path d="M599.699 271.366L590.735 264.735" stroke="black" stroke-width="2.03399"/>
<path d="M545.394 264.888H568.303" stroke="black" stroke-width="2.03399"/>
<path d="M591.213 264.888H568.303" stroke="black" stroke-width="2.03399"/>
<path d="M599.397 272.329L601.814 270.485L606.506 272.858L605.294 283.248L595.323 290.167" stroke="black" stroke-width="2.03399"/>
<path d="M444.17 472.499H463.268V499.678H444.17L430.948 490.128V462.215L444.17 472.499Z" fill="black"/>
<path d="M482.367 472.499H462.5V499.678H482.367L495.589 490.128V462.215L482.367 472.499Z" fill="black"/>
<path d="M431.649 463.066L444.136 452.782" stroke="black" stroke-width="3"/>
<path d="M494.889 463.066L482.401 452.782" stroke="black" stroke-width="3"/>
<path d="M443.435 453.033H463.269" stroke="black" stroke-width="3"/>
<path d="M483.102 453.033H463.269" stroke="black" stroke-width="3"/>
<path d="M432.723 465.064L427.679 461.054L423.307 463.74L423.342 473.306L432.565 484.553" stroke="black" stroke-width="3"/>
<path d="M440.426 281.033H459.693V341.588H441.649L412.289 319.568L429.721 272.47L440.426 281.033Z" fill="black"/>
<path d="M478.96 281.033H459V341.588H477.737L507.097 319.568L490.276 272.47L478.96 281.033Z" fill="black"/>
<path d="M430.309 273.175L441.319 264" stroke="black" stroke-width="2.49808"/>
<path d="M489.689 273.175L478.679 264" stroke="black" stroke-width="2.49808"/>
<path d="M440.731 264.213H459.693" stroke="black" stroke-width="2.49808"/>
<path d="M479.266 264.213H451.13" stroke="black" stroke-width="2.49808"/>
<path d="M488.704 274.784L493.648 271.104L498.537 273.767L504.533 289.229L497.122 305.667" stroke="black" stroke-width="2.49808"/>
<path d="M434.721 381.243H456.616V427.385H446.964L431.425 416.586L426.246 374.37L434.721 381.243Z" fill="black"/>
<path d="M478.276 381.243H456.381V427.385H466.033L481.572 416.586L486.516 374.37L478.276 381.243Z" fill="black"/>
<path d="M426.698 374.936L435.173 367.573" stroke="black" stroke-width="1.96431"/>
<path d="M486.064 374.936L477.589 367.573" stroke="black" stroke-width="1.96349"/>
<path d="M434.721 367.744H456.381" stroke="black" stroke-width="1.96349"/>
<path d="M478.04 367.744H456.381" stroke="black" stroke-width="1.96349"/>
<path d="M485.741 376.054L488.36 373.638L492.463 376.641L491.317 388.178L481.89 395.861" stroke="black" stroke-width="1.96349"/>
<path d="M336.965 371.752H355.52V393.546H335.787L319 384.416L326.657 363.505L336.965 371.752Z" fill="black"/>
<path d="M374.074 371.752H355V393.546H375.252L392.039 384.416L384.971 363.505L374.074 371.752Z" fill="black"/>
<path d="M327.223 364.184L337.825 355.349" stroke="black" stroke-width="2.40563"/>
<path d="M384.405 364.184L373.803 355.349" stroke="black" stroke-width="2.40563"/>
<path d="M337.26 355.553H355.52" stroke="black" stroke-width="2.40563"/>
<path d="M374.368 355.553H347.273" stroke="black" stroke-width="2.40563"/>
<path d="M383.812 365.469L386.538 363.501L390.661 365.762L392.79 372.627L388.311 378.79" stroke="black" stroke-width="2.40563"/>
<path d="M332.222 283.717H351.321V324.485H332.222L319 313.467V273.433L332.222 283.717Z" fill="black"/>
<path d="M370.419 283.717H350.5V324.485H370.419L383.641 313.467V273.433L370.419 283.717Z" fill="black"/>
<path d="M319.7 274.284L332.188 264" stroke="black" stroke-width="3"/>
<path d="M382.941 274.284L370.453 264" stroke="black" stroke-width="3"/>
<path d="M331.487 264.251H351.321" stroke="black" stroke-width="3"/>
<path d="M371.154 264.251H351.321" stroke="black" stroke-width="3"/>
<path d="M382.895 275.373L386.462 272.549L392.935 277.851L392.9 291.934L382.024 303.365" stroke="black" stroke-width="3"/>
<path d="M377.624 437.428H354V499.486H365.763L379.996 489.223L385.387 430.744L377.624 437.428Z" fill="black"/>
<path d="M332.768 437.428H355.196V499.486H344.629L330.396 489.223L325.005 430.744L332.768 437.428Z" fill="black"/>
<path d="M325.419 431.295L333.182 424.134" stroke="black" stroke-width="1.85317"/>
<path d="M384.973 431.295L377.21 424.134" stroke="black" stroke-width="1.85317"/>
<path d="M332.768 424.3H360.803" stroke="black" stroke-width="1.85317"/>
<path d="M377.624 424.3H360.803" stroke="black" stroke-width="1.85317"/>
<path d="M325.728 432.345L322.668 429.548L319 432.879L321.496 454.083L331.655 460.668" stroke="black" stroke-width="1.85317"/>
</svg>
