<svg width="401" height="324" viewBox="0 0 401 324" fill="none" xmlns="http://www.w3.org/2000/svg">
<path d="M369.715 267.143H342.406V323.062L373.183 322.772L398.758 299.22L385.754 255.005L369.715 267.143Z" fill="black"/>
<path d="M315.53 267.143H342.84V323.062L312.063 322.772L286.487 299.22L299.925 255.005L315.53 267.143Z" fill="black"/>
<path d="M300.758 256.004L316.363 243" stroke="black" stroke-width="2.60087"/>
<path d="M384.922 256.004L369.316 243" stroke="black" stroke-width="2.60087"/>
<path d="M315.531 243.301H342.406" stroke="black" stroke-width="2.60087"/>
<path d="M370.149 243.301H330.269" stroke="black" stroke-width="2.60087"/>
<path d="M301.56 257.884L296.178 253.915L289.302 257.202L284 273.157L296.347 293.313" stroke="black" stroke-width="2.60087"/>
<path d="M314 123.842H340V203.842H314L296 183.842V109.842L314 123.842Z" fill="black"/>
<path d="M366 123.842H340V203.842H366L384 183.842V109.842L366 123.842Z" fill="black"/>
<path d="M296.954 111L313.954 97" stroke="black" stroke-width="3"/>
<path d="M383.046 111L366.046 97" stroke="black" stroke-width="3"/>
<path d="M313 97.342H340" stroke="black" stroke-width="3"/>
<path d="M367 97.342H340" stroke="black" stroke-width="3"/>
<path d="M382.737 112.754L389.603 107.296L398.728 114.608L398.68 133.78L382.151 150.314" stroke="black" stroke-width="3"/>
<path d="M371.919 19.7604H340.392V58.38H360.054L379.038 46.0418L383.783 11.3344L371.919 19.7604Z" fill="black"/>
<path d="M309.204 19.7604H340.731V58.38H321.069L302.085 46.0418L297 11.3344L309.204 19.7604Z" fill="black"/>
<path d="M297.651 12.028L309.855 3.00003" stroke="black" stroke-width="2.03399"/>
<path d="M383.133 12.0279L370.929 3" stroke="black" stroke-width="2.03399"/>
<path d="M309.204 3.20923H340.392" stroke="black" stroke-width="2.03399"/>
<path d="M371.58 3.20923H340.392" stroke="black" stroke-width="2.03399"/>
<path d="M382.721 13.3382L386.012 10.8281L392.399 14.0584L390.749 28.2041L377.175 37.6234" stroke="black" stroke-width="2.03399"/>
<path d="M171.401 285.842H197.401V322.842H171.401L153.401 309.842V271.842L171.401 285.842Z" fill="black"/>
<path d="M223.401 285.842H197.401V322.842H223.401L241.401 309.842V271.842L223.401 285.842Z" fill="black"/>
<path d="M154.355 273L171.355 259" stroke="black" stroke-width="3"/>
<path d="M240.448 273L223.448 259" stroke="black" stroke-width="3"/>
<path d="M170.401 259.342H197.401" stroke="black" stroke-width="3"/>
<path d="M224.401 259.342H197.401" stroke="black" stroke-width="3"/>
<path d="M155.818 275.72L148.952 270.262L143 273.919L143.047 286.941L155.603 302.253" stroke="black" stroke-width="3"/>
<path d="M166.304 25.1886H192.534V107.625H167.969L128 77.6483L151.732 13.5309L166.304 25.1886Z" fill="black"/>
<path d="M218.764 25.1886H192.534V107.625H217.098L257.068 77.6483L234.169 13.5309L218.764 25.1886Z" fill="black"/>
<path d="M152.531 14.4904L167.52 1.99998" stroke="black" stroke-width="2.49808"/>
<path d="M233.369 14.4904L218.381 2" stroke="black" stroke-width="2.49808"/>
<path d="M166.72 2.28955H192.534" stroke="black" stroke-width="2.49808"/>
<path d="M219.18 2.28955H180.876" stroke="black" stroke-width="2.49808"/>
<path d="M232.028 16.6805L238.758 11.6714L245.415 15.2967L253.578 36.3459L243.488 58.7241" stroke="black" stroke-width="2.49808"/>
<path d="M158.538 161.61H188.345V224.426H175.205L154.051 209.724L147 152.254L158.538 161.61Z" fill="black"/>
<path d="M217.832 161.61H188.025V224.426H201.166L222.319 209.724L229.05 152.254L217.832 161.61Z" fill="black"/>
<path d="M147.616 153.024L159.154 143" stroke="black" stroke-width="1.96431"/>
<path d="M228.434 153.024L216.896 143" stroke="black" stroke-width="1.96349"/>
<path d="M158.538 143.232H188.025" stroke="black" stroke-width="1.96349"/>
<path d="M217.511 143.232H188.025" stroke="black" stroke-width="1.96349"/>
<path d="M227.995 154.545L231.56 151.256L237.145 155.345L235.585 171.051L222.752 181.51" stroke="black" stroke-width="1.96349"/>
<path d="M25.4572 148.689H50.7164V178.358H23.8535L1 165.929L11.4244 137.463L25.4572 148.689Z" fill="black"/>
<path d="M75.9754 148.689H50.7163V178.358H77.5792L100.433 165.929L90.8101 137.463L75.9754 148.689Z" fill="black"/>
<path d="M12.1943 138.387L26.6281 126.358" stroke="black" stroke-width="2.40563"/>
<path d="M90.0403 138.387L75.6063 126.358" stroke="black" stroke-width="2.40563"/>
<path d="M25.8582 126.637H50.7163" stroke="black" stroke-width="2.40563"/>
<path d="M76.3763 126.637H39.49" stroke="black" stroke-width="2.40563"/>
<path d="M89.2324 140.136L92.943 137.457L98.5563 140.535L101.455 149.88L95.3567 158.271" stroke="black" stroke-width="2.40563"/>
<path d="M19 28.842H45V84.342H19L1 69.342V14.842L19 28.842Z" fill="black"/>
<path d="M71 28.842H44.9219L45 84.342H71L89 69.342V14.842L71 28.842Z" fill="black"/>
<path d="M1.95361 16L18.9536 2" stroke="black" stroke-width="3"/>
<path d="M88.0464 16L71.0464 2" stroke="black" stroke-width="3"/>
<path d="M18 2.34204H45" stroke="black" stroke-width="3"/>
<path d="M72 2.34204H45" stroke="black" stroke-width="3"/>
<path d="M87.9843 17.483L92.8394 13.6388L101.651 20.8567L101.604 40.0288L86.7988 55.5907" stroke="black" stroke-width="3"/>
<path d="M80.8082 238.098H50.2759V322.581H64.6613L84.0376 308.609L91.3771 228.999L80.8082 238.098Z" fill="black"/>
<path d="M19.7434 238.098H50.2758V322.581H35.8904L16.5141 308.609L9.17456 228.999L19.7434 238.098Z" fill="black"/>
<path d="M9.73853 229.748L20.3074 220" stroke="black" stroke-width="1.85317"/>
<path d="M90.8134 229.748L80.2445 220" stroke="black" stroke-width="1.85317"/>
<path d="M19.7434 220.226H57.9088" stroke="black" stroke-width="1.85317"/>
<path d="M80.8082 220.226H57.9089" stroke="black" stroke-width="1.85317"/>
<path d="M10.1586 231.178L5.99409 227.37L1 231.905L4.39765 260.772L18.2286 269.736" stroke="black" stroke-width="1.85317"/>
</svg>
