<svg width="295" height="238" viewBox="0 0 295 238" fill="none" xmlns="http://www.w3.org/2000/svg">
<path d="M271.843 196.763H251.783V237.839L274.391 237.626L293.177 220.326L283.625 187.848L271.843 196.763Z" fill="black"/>
<path d="M232.041 196.763H252.101V237.839L229.494 237.626L210.707 220.326L220.578 187.848L232.041 196.763Z" fill="black"/>
<path d="M221.19 188.581L232.653 179.029" stroke="black" stroke-width="2.60087"/>
<path d="M283.013 188.581L271.55 179.029" stroke="black" stroke-width="2.60087"/>
<path d="M232.041 179.25H251.783" stroke="black" stroke-width="2.60087"/>
<path d="M272.162 179.25H242.868" stroke="black" stroke-width="2.60087"/>
<path d="M221.779 189.962L217.826 187.047L212.775 189.461L208.88 201.181L217.95 215.987" stroke="black" stroke-width="2.60087"/>
<path d="M230.917 91.5003H250.016V150.265H230.917L217.695 135.574V81.2164L230.917 91.5003Z" fill="black"/>
<path d="M269.114 91.5003H249V150.265H269.114L282.336 135.574V81.2164L269.114 91.5003Z" fill="black"/>
<path d="M218.396 82.0669L230.883 71.7831" stroke="black" stroke-width="3"/>
<path d="M281.636 82.0669L269.148 71.7831" stroke="black" stroke-width="3"/>
<path d="M230.183 72.0344H250.016" stroke="black" stroke-width="3"/>
<path d="M269.849 72.0344H250.016" stroke="black" stroke-width="3"/>
<path d="M281.408 83.3555L286.452 79.3464L293.154 84.7173L293.12 98.8004L280.978 110.946" stroke="black" stroke-width="3"/>
<path d="M273.462 15.0461H250.303V43.4145H264.746L278.691 34.3513L282.177 8.85669L273.462 15.0461Z" fill="black"/>
<path d="M227.394 15.0461H250.553V43.4145H236.11L222.165 34.3513L218.43 8.85669L227.394 15.0461Z" fill="black"/>
<path d="M218.908 9.36621L227.872 2.73466" stroke="black" stroke-width="2.03399"/>
<path d="M281.699 9.36617L272.735 2.73462" stroke="black" stroke-width="2.03399"/>
<path d="M227.394 2.88831H250.303" stroke="black" stroke-width="2.03399"/>
<path d="M273.213 2.88831H250.303" stroke="black" stroke-width="2.03399"/>
<path d="M281.397 10.3286L283.814 8.48474L288.506 10.8576L287.294 21.2484L277.323 28.1675" stroke="black" stroke-width="2.03399"/>
<path d="M126.17 210.499H145.268V237.678H126.17L112.948 228.128V200.215L126.17 210.499Z" fill="black"/>
<path d="M164.367 210.499H144.5V237.678H164.367L177.589 228.128V200.215L164.367 210.499Z" fill="black"/>
<path d="M113.649 201.066L126.136 190.782" stroke="black" stroke-width="3"/>
<path d="M176.889 201.066L164.401 190.782" stroke="black" stroke-width="3"/>
<path d="M125.435 191.033H145.269" stroke="black" stroke-width="3"/>
<path d="M165.102 191.033H145.269" stroke="black" stroke-width="3"/>
<path d="M114.723 203.064L109.679 199.054L105.307 201.74L105.342 211.306L114.565 222.553" stroke="black" stroke-width="3"/>
<path d="M122.426 19.0334H141.693V79.5881H123.649L94.2891 57.5682L111.721 10.4701L122.426 19.0334Z" fill="black"/>
<path d="M160.96 19.0334H141V79.5881H159.737L189.097 57.5682L172.276 10.4701L160.96 19.0334Z" fill="black"/>
<path d="M112.309 11.1748L123.319 1.99988" stroke="black" stroke-width="2.49808"/>
<path d="M171.689 11.1749L160.679 2" stroke="black" stroke-width="2.49808"/>
<path d="M122.731 2.21265H141.693" stroke="black" stroke-width="2.49808"/>
<path d="M161.266 2.21265H133.13" stroke="black" stroke-width="2.49808"/>
<path d="M170.704 12.7838L175.648 9.10425L180.537 11.7673L186.533 27.2292L179.122 43.6672" stroke="black" stroke-width="2.49808"/>
<path d="M116.721 119.243H138.616V165.385H128.964L113.425 154.586L108.246 112.37L116.721 119.243Z" fill="black"/>
<path d="M160.276 119.243H138.381V165.385H148.033L163.572 154.586L168.516 112.37L160.276 119.243Z" fill="black"/>
<path d="M108.698 112.936L117.173 105.573" stroke="black" stroke-width="1.96431"/>
<path d="M168.064 112.936L159.589 105.573" stroke="black" stroke-width="1.96349"/>
<path d="M116.721 105.744H138.381" stroke="black" stroke-width="1.96349"/>
<path d="M160.04 105.744H138.381" stroke="black" stroke-width="1.96349"/>
<path d="M167.741 114.054L170.36 111.638L174.463 114.641L173.317 126.178L163.89 133.861" stroke="black" stroke-width="1.96349"/>
<path d="M18.9653 109.752H37.5196V131.546H17.7872L1 122.416L8.65733 101.505L18.9653 109.752Z" fill="black"/>
<path d="M56.0739 109.752H37V131.546H57.2519L74.0391 122.416L66.9708 101.505L56.0739 109.752Z" fill="black"/>
<path d="M9.2229 102.184L19.8253 93.3486" stroke="black" stroke-width="2.40563"/>
<path d="M66.4054 102.184L55.8027 93.3486" stroke="black" stroke-width="2.40563"/>
<path d="M19.2598 93.5535H37.5196" stroke="black" stroke-width="2.40563"/>
<path d="M56.3684 93.5535H29.2732" stroke="black" stroke-width="2.40563"/>
<path d="M65.8119 103.469L68.5376 101.501L72.6608 103.762L74.7903 110.627L70.3105 116.79" stroke="black" stroke-width="2.40563"/>
<path d="M14.2221 21.7171H33.3206V62.4851H14.2221L1 51.4667V11.4332L14.2221 21.7171Z" fill="black"/>
<path d="M52.4193 21.7171H32.5V62.4851H52.4193L65.6414 51.4667V11.4332L52.4193 21.7171Z" fill="black"/>
<path d="M1.70044 12.2838L14.1879 2" stroke="black" stroke-width="3"/>
<path d="M64.9408 12.2838L52.4532 2" stroke="black" stroke-width="3"/>
<path d="M13.4875 2.25122H33.3207" stroke="black" stroke-width="3"/>
<path d="M53.1537 2.25122H33.3206" stroke="black" stroke-width="3"/>
<path d="M64.8952 13.3731L68.4616 10.5493L74.9345 15.8513L74.8998 29.9344L64.0244 41.3655" stroke="black" stroke-width="3"/>
<path d="M59.6239 175.428H36V237.486H47.763L61.996 227.223L67.3873 168.744L59.6239 175.428Z" fill="black"/>
<path d="M14.7681 175.428H37.1959V237.486H26.629L12.3959 227.223L7.00464 168.744L14.7681 175.428Z" fill="black"/>
<path d="M7.41895 169.295L15.1824 162.134" stroke="black" stroke-width="1.85317"/>
<path d="M66.9732 169.295L59.2097 162.134" stroke="black" stroke-width="1.85317"/>
<path d="M14.7683 162.3H42.8031" stroke="black" stroke-width="1.85317"/>
<path d="M59.6238 162.3H42.803" stroke="black" stroke-width="1.85317"/>
<path d="M7.72753 170.345L4.66846 167.548L1 170.879L3.49578 192.083L13.6555 198.668" stroke="black" stroke-width="1.85317"/>
</svg>
