<svg width="44" height="32" viewBox="0 0 44 32" fill="none" xmlns="http://www.w3.org/2000/svg">
<path d="M11.4816 30.6481L3.47035 24.0323L1.47957 8.56919L8.55254 12.0034H28.6106L35.6595 8.58122L35.3829 10.5179L34.186 20.6882L33.8793 22.7933L33.7049 24.0263L25.6876 30.6481H11.4816Z" fill="#111111"/>
<path d="M2.95311 10.6201L7.77668 12.9597L8.27587 13.2003H28.8873L29.3865 12.9597L34.1559 10.6442L32.9952 20.5259L32.8388 21.5724L32.7004 22.5166L32.6764 22.6971L32.5802 23.3827L25.2546 29.4392H11.9146L4.60707 23.3947L2.95912 10.6141M37.1752 6.51226L28.334 10.8005H8.8292L2.67029e-05 6.51226L2.33964 24.6578L11.0485 31.857H26.1207L34.8296 24.6578L35.0822 22.8835L35.2205 21.9332L35.3829 20.8266L36.5737 10.6863L36.8083 9.05035L36.8444 8.80376L37.1752 6.51226Z" fill="#111111"/>
<path d="M26.2469 2.54874L34.8115 7.65499L28.3339 9.59765H8.82917L2.35766 7.661L10.9222 2.54874H26.2469ZM27.1371 0.142975H10.0321L0 6.51225L8.82917 10.8005H28.3339L37.1751 6.51225L27.1371 0.142975Z" fill="#111111"/>
<path d="M26.2469 1.95935L34.8114 7.0656L28.3339 10.2111H8.82911L2.35759 7.07161L10.9221 1.95935H26.2469Z" fill="#BEBFA8" stroke="#BEBFA8" stroke-width="1.20288" stroke-miterlimit="10"/>
<path d="M43.4782 7.42047L39.2922 5.48383L37.1751 6.51229L37.0909 7.08968L37.0789 7.16786L36.8804 8.55118L36.8263 8.91806L39.3102 7.53474L41.9446 8.76169L40.483 16.821L38.4321 19.1847L35.3106 21.3078L35.2204 21.9273L34.8295 24.6518L39.202 21.1394L42.3896 17.1338L43.4782 7.42047Z" fill="#111111"/>
<path d="M34.7513 21.1273L34.4085 23.5331L38.0532 20.9108L40.868 17.3743L42.0468 8.31661L38.3479 6.6025L36.4774 7.51068L36.4053 8.02792L36.3932 8.09408L36.2188 9.315L36.1707 9.63377L38.366 8.41885L40.6875 9.50145L39.8515 16.9653L37.3315 19.4794L34.8896 21.3078" fill="#111111"/>
<path d="M27.2667 16.167H20.0908V18.7676C20.6774 18.181 21.4139 17.8877 22.3003 17.8877C23.4083 17.8877 24.2947 18.2201 24.9595 18.8849C25.6373 19.5497 25.9762 20.423 25.9762 21.505C25.9762 22.6651 25.5917 23.5906 24.8226 24.2815C24.0665 24.9724 23.115 25.3178 21.9679 25.3178C21.8245 25.3178 21.6746 25.3048 21.5181 25.2787V23.7145C21.5964 23.7275 21.7202 23.734 21.8896 23.734C22.5414 23.734 23.0693 23.5385 23.4734 23.1474C23.8775 22.7433 24.0796 22.2024 24.0796 21.5245C24.0796 20.9119 23.8906 20.41 23.5125 20.019C23.1476 19.6149 22.6522 19.4128 22.0265 19.4128C21.4921 19.4128 21.0358 19.6083 20.6578 19.9994C20.2798 20.3774 20.0908 20.8532 20.0908 21.4268V27.3122H18.1942V24.6334C17.5815 25.22 16.8385 25.5133 15.9651 25.5133C14.8702 25.5133 13.9838 25.1809 13.3059 24.5161C12.6281 23.8383 12.2892 22.9649 12.2892 21.896C12.2892 20.7359 12.6672 19.8104 13.4232 19.1195C14.1923 18.4287 15.1504 18.0832 16.2975 18.0832C16.5061 18.0832 16.656 18.0963 16.7472 18.1223V19.6866C16.6169 19.6605 16.4931 19.6475 16.3757 19.6475C15.737 19.6475 15.2091 19.8495 14.7919 20.2536C14.3879 20.6577 14.1858 21.1986 14.1858 21.8765C14.1858 22.4891 14.3748 22.9975 14.7528 23.4016C15.1309 23.7927 15.6262 23.9882 16.2389 23.9882C16.7733 23.9882 17.2295 23.7992 17.6076 23.4212C17.9986 23.0301 18.1942 22.5478 18.1942 21.9742V16.167H11.0182V14.6028H27.2667V16.167Z" fill="#BEBFA8"/>
</svg>
