<svg width="258" height="226" viewBox="0 0 258 226" fill="none" xmlns="http://www.w3.org/2000/svg">
<path d="M57.0932 5H200.907" stroke="#111111" stroke-width="8.38913" stroke-miterlimit="10"/>
<path d="M193.017 5H64.983L5.02069 64.9623V161.038L64.983 221H193.017L252.979 161.038V64.9623L193.017 5Z" stroke="#111111" stroke-width="8.38913" stroke-miterlimit="10"/>
<path d="M57.0932 221H200.907" stroke="#111111" stroke-width="8.38913" stroke-miterlimit="10"/>
<path d="M188.743 81.7804H135.971V100.916C140.285 96.6011 145.718 94.4439 152.23 94.4439C160.379 94.4439 166.931 96.8808 171.845 101.794C176.798 106.668 179.235 113.1 179.235 121.049C179.235 129.598 176.439 136.39 170.806 141.463C165.173 146.536 158.182 149.093 149.753 149.093C148.715 149.093 147.596 149.013 146.437 148.813V137.308C146.997 137.388 147.916 137.468 149.154 137.468C153.948 137.468 157.823 135.99 160.819 133.074C163.775 130.158 165.293 126.203 165.293 121.209C165.293 116.695 163.935 112.98 161.178 110.064C158.462 107.147 154.787 105.669 150.193 105.669C146.278 105.669 142.922 107.068 140.126 109.904C137.329 112.74 135.971 116.256 135.971 120.49V163.794H122.029V144.1C117.515 148.414 112.042 150.571 105.65 150.571C97.5808 150.571 91.0693 148.094 86.0757 143.181C81.0822 138.227 78.6054 131.835 78.6054 123.966C78.6054 115.417 81.4017 108.626 87.0344 103.552C92.6671 98.4787 99.6581 95.922 108.087 95.922C109.605 95.922 110.724 96.0019 111.403 96.2017V107.707C110.444 107.507 109.525 107.427 108.686 107.427C103.972 107.427 100.137 108.905 97.1014 111.901C94.0653 114.897 92.5872 118.852 92.5872 123.846C92.5872 128.36 93.9855 132.075 96.7419 134.991C99.5383 137.908 103.174 139.386 107.688 139.386C111.603 139.386 114.998 137.987 117.835 135.151C120.671 132.315 122.069 128.799 122.069 124.565V81.8603H69.2974V70.3552H188.823V81.8603L188.743 81.7804Z" fill="#111111"/>
</svg>
