<svg width="154" height="223" viewBox="0 0 154 223" fill="none" xmlns="http://www.w3.org/2000/svg">
<path d="M24.6276 43.4041H112.952L98.6774 133.513H38.9023L24.6276 43.4041Z" stroke="#111111" stroke-width="3.55211"/>
<path d="M13.9217 216.484H123.658L98.6775 133.513H38.9024L13.9217 216.484Z" stroke="#111111" stroke-width="3.55211"/>
<path d="M41.5787 43.4041H95.1087L86.4574 133.513H50.23L41.5787 43.4041Z" stroke="#111111" stroke-width="3.55211"/>
<path d="M38.0101 216.484H98.6774L86.4575 133.513H50.2301L38.0101 216.484Z" stroke="#111111" stroke-width="3.55211"/>
<line x1="66.5678" y1="133.513" x2="66.5678" y2="43.4041" stroke="#111111" stroke-width="3.55211"/>
<path d="M67.4517 133.513V217.377" stroke="#111111" stroke-width="3.55211"/>
<rect x="23.7355" y="42.5122" width="50.8347" height="3.55211" transform="rotate(-30 23.7355 42.5122)" fill="#111111"/>
<rect width="50.9626" height="3.55211" transform="matrix(-0.866025 -0.5 -0.5 0.866025 114.079 42.5122)" fill="#111111"/>
<rect width="8.92166" height="3.55211" transform="matrix(0 1 1 0 67.4517 11.2861)" fill="#111111"/>
<path d="M62.4109 0H75.1689L72.8492 12.758H64.7305L62.4109 0Z" fill="#111111"/>
<path d="M5 43.4041H24.6277L28.6424 68.3847L5 43.4041Z" stroke="#111111" stroke-width="3.55211"/>
<rect x="28.1964" y="216.484" width="77.6185" height="4.46083" fill="#111111" stroke="#111111" stroke-width="3.55211"/>
<rect x="38.0101" y="129.944" width="61.5595" height="8.92166" fill="#111111"/>
<path d="M137.041 55.0024L153.546 128.606H137.041L125.443 73.2919H108.491L111.614 55.0024H137.041Z" fill="#111111"/>
</svg>
